<svg width="346" height="131" viewBox="0 0 346 131" fill="none" xmlns="http://www.w3.org/2000/svg">
<path d="M7.17085 111.738H9.62943V98.2837V91.5226C13.4539 94.3909 17.21 96.03 20.6247 96.03C29.2298 96.03 36.6055 88.8591 36.6055 76.6345C36.6055 65.5027 31.8932 58.2635 22.1272 58.2635C17.6198 58.2635 13.3173 60.9953 9.76602 63.7953H9.62943L9.21967 59.1513H7.17085V111.738ZM20.8296 93.7763C17.9613 93.7763 13.8636 92.4787 9.62943 88.9274V66.7319C14.2051 62.7709 18.2345 60.5172 21.9223 60.5172C30.7322 60.5172 34.0103 67.4832 34.0103 76.6345C34.0103 86.6737 28.4785 93.7763 20.8296 93.7763ZM60.6263 96.03C69.2313 96.03 76.607 89.1323 76.607 77.2492C76.607 65.1612 69.2313 58.2635 60.6263 58.2635C52.0212 58.2635 44.6455 65.1612 44.6455 77.2492C44.6455 89.1323 52.0212 96.03 60.6263 96.03ZM60.6263 93.7763C52.9773 93.7763 47.2407 87.0835 47.2407 77.2492C47.2407 67.3466 52.9773 60.5172 60.6263 60.5172C68.2752 60.5172 74.0801 67.3466 74.0801 77.2492C74.0801 87.0835 68.2752 93.7763 60.6263 93.7763ZM96.2714 96.03C103.852 96.03 108.018 91.386 108.018 86.0591C108.018 79.0248 101.803 77.2492 96.0665 75.0638C91.764 73.4247 87.6663 71.7857 87.6663 67.4832C87.6663 63.9319 90.3981 60.5172 96.3397 60.5172C100.096 60.5172 102.623 62.0197 105.013 63.7953L106.447 61.9514C103.92 59.766 100.096 58.2635 96.4763 58.2635C89.0322 58.2635 85.1395 62.6343 85.1395 67.6198C85.1395 73.8345 91.0127 75.8833 96.4763 77.8638C100.71 79.3663 105.491 81.4834 105.491 86.1957C105.491 90.2933 102.418 93.7763 96.408 93.7763C91.081 93.7763 87.7346 91.7275 84.7297 89.1323L83.159 91.1128C86.3688 93.7763 90.8762 96.03 96.2714 96.03ZM125.702 96.03C126.932 96.03 129.185 95.4154 131.302 94.6641L130.483 92.6153C129.185 93.23 127.273 93.7763 125.907 93.7763C120.649 93.7763 119.624 90.5665 119.624 85.9225V61.405H130.278V59.1513H119.624V48.6341H117.507L117.234 59.1513L111.497 59.4928V61.405H117.234V85.581C117.234 91.8641 119.009 96.03 125.702 96.03Z" fill="#FBF5F0"/>
<path d="M142.564 96.3187C139.078 96.3187 136.455 95.2274 134.697 93.0447C132.939 90.862 132.06 88.1639 132.06 84.9505C132.06 81.7068 132.651 78.4783 133.833 75.2649C135.016 72.0212 136.592 69.0351 138.562 66.3068C140.563 63.5481 143.049 61.2745 146.02 59.4859C148.991 57.6973 152.098 56.803 155.342 56.803C159.647 56.803 162.436 57.8337 163.709 59.8951C164.163 60.6227 164.391 61.5625 164.391 62.7144C164.391 63.8361 163.815 64.8365 162.663 65.7156C161.541 66.5644 160.116 66.9889 158.388 66.9889C157.449 66.9889 156.57 66.0188 155.751 64.0786C155.448 63.3814 154.948 62.7296 154.25 62.1233C153.584 61.517 152.795 61.2138 151.886 61.2138C150.128 61.2138 148.475 62.1991 146.929 64.1696C145.383 66.14 144.171 68.5349 143.292 71.3542C142.443 74.1735 142.018 76.9322 142.018 79.6302C142.018 82.298 142.503 84.4655 143.473 86.1328C144.444 87.7699 145.914 88.5884 147.884 88.5884C153.159 88.5884 160.42 84.0259 169.666 74.9011V79.994C161.481 87.9669 154.72 92.9689 149.385 95C147.02 95.8791 144.747 96.3187 142.564 96.3187ZM194.994 57.3941C194.994 58.2733 194.66 58.925 193.994 59.3495C187.961 59.3495 183.353 61.0774 180.17 64.5333C177.199 67.8074 175.714 71.4906 175.714 75.5832C175.714 79.6454 176.608 82.8891 178.396 85.3143C180.215 87.7395 182.428 88.9521 185.035 88.9521C187.643 88.9521 190.159 87.588 192.584 84.8596C190.31 83.4348 188.552 81.5553 187.309 79.221C186.096 76.8867 185.49 74.5222 185.49 72.1273C185.49 69.7021 186.218 67.7467 187.673 66.2613C189.128 64.7455 191.235 63.9877 193.994 63.9877C196.752 63.9877 198.753 64.7304 199.996 66.2158C201.269 67.7013 201.906 69.5202 201.906 71.6725C201.906 76.0985 200.496 80.0243 197.677 83.45C198.435 83.7531 199.086 83.9047 199.632 83.9047C200.178 83.9047 200.739 83.7834 201.315 83.5409C201.921 83.2681 202.603 82.8133 203.361 82.1767C204.119 81.5098 204.786 80.8883 205.362 80.3123C205.938 79.7364 206.771 78.8724 207.863 77.7204C208.954 76.5684 209.879 75.6287 210.637 74.9011V79.9031C208.12 82.5708 206.074 84.4655 204.498 85.5872C202.952 86.7088 201.421 87.2697 199.905 87.2697C198.42 87.2697 197.055 87.0574 195.812 86.633C193.478 89.4827 190.704 91.8169 187.491 93.6358C184.308 95.4244 181.004 96.3187 177.578 96.3187C172.667 96.3187 169.165 93.9996 167.074 89.3614C165.891 86.7543 165.3 83.8289 165.3 80.5852C165.3 73.2186 167.907 67.4133 173.122 63.1692C178.366 58.925 185.323 56.803 193.994 56.803C194.6 56.803 194.933 57 194.994 57.3941ZM197.586 72.5365C197.586 69.7475 196.343 68.353 193.857 68.353C191.402 68.353 190.174 69.8233 190.174 72.7639C190.174 74.31 190.583 75.9167 191.402 77.584C192.25 79.221 193.387 80.5245 194.812 81.4946C195.418 80.4942 196.025 79.1149 196.631 77.3566C197.268 75.568 197.586 73.9613 197.586 72.5365ZM229.781 84.1775C226.506 87.9972 223.217 90.9833 219.913 93.1356C216.609 95.2577 214.123 96.3187 212.455 96.3187C210.818 96.3187 209.56 96.0004 208.681 95.3638C207.802 94.7575 207.15 93.939 206.726 92.9083C205.998 91.0287 205.635 88.7248 205.635 85.9964C205.635 83.2681 206.377 80.1153 207.863 76.5381C209.348 72.9306 211.243 69.6869 213.547 66.807C215.851 63.927 218.473 61.5473 221.414 59.6678C224.384 57.7579 227.007 56.803 229.28 56.803C231.554 56.803 233.767 57.1213 235.919 57.7579L241.967 36.1584C242.816 32.6722 243.65 30.6411 244.468 30.0651C245.59 29.2466 246.727 28.807 247.879 28.7464C249.061 28.6554 250.319 28.61 251.653 28.61H253.244C253.123 29.6407 252.593 31.7476 251.653 34.9306C249.773 40.5389 247.166 49.3909 243.832 61.4867C240.527 73.5521 238.875 80.7519 238.875 83.0862C238.875 84.2078 238.981 84.9657 239.193 85.3598C239.406 85.7539 239.8 85.9509 240.376 85.9509C240.982 85.9509 242.21 85.0718 244.059 83.3135C245.938 81.5553 248.682 78.7814 252.289 74.992V80.085C251.865 80.5094 251.077 81.2976 249.925 82.4496C248.803 83.6015 247.97 84.4503 247.424 84.996L245.014 87.3606C243.983 88.4216 243.149 89.225 242.513 89.7706C241.907 90.3163 241.149 90.9984 240.239 91.8169C239.33 92.6354 238.572 93.272 237.966 93.7268C237.359 94.1512 236.708 94.5907 236.01 95.0455C234.707 95.8943 233.615 96.3187 232.736 96.3187C230.25 96.3187 229.007 94.3028 229.007 90.2708C229.007 88.3307 229.265 86.2996 229.781 84.1775ZM235.055 61.7595C234.934 61.3351 234.388 60.941 233.418 60.5772C232.479 60.1831 231.599 59.9861 230.781 59.9861C228.174 59.9861 225.642 61.1835 223.187 63.5784C220.731 65.9733 218.791 68.8835 217.366 72.3092C215.942 75.7044 215.229 78.9482 215.229 82.0403C215.229 85.8903 216.472 87.8153 218.958 87.8153C220.898 87.8153 223.323 86.724 226.234 84.5413C229.144 82.3283 230.751 80.6003 231.054 79.3574L235.055 61.7595ZM260.52 69.308C262.824 72.2788 265.37 73.7643 268.159 73.7643C269.918 73.7643 271.433 72.9003 272.707 71.1723C274.01 69.4444 274.662 67.6255 274.662 65.7156C274.662 63.8058 274.298 62.5325 273.571 61.8959C272.873 61.229 271.843 60.8955 270.479 60.8955C269.145 60.8955 267.887 61.1987 266.704 61.805C265.552 62.4113 264.567 63.1692 263.749 64.0786C262.172 65.8672 261.096 67.6103 260.52 69.308ZM285.484 75.083V80.085C280.664 85.3901 276.36 89.422 272.57 92.1807C268.781 94.9394 265.173 96.3187 261.748 96.3187C254.897 96.3187 250.622 94.0905 248.924 89.6342C248.288 87.876 247.97 85.7539 247.97 83.2681C247.97 78.8421 248.894 74.6283 250.743 70.6267C252.593 66.5948 255.245 63.2904 258.701 60.7136C262.187 58.1065 266.053 56.803 270.297 56.803C277.451 56.803 281.028 59.4707 281.028 64.8062C281.028 68.2621 279.634 71.2784 276.845 73.8552C274.056 76.4017 270.918 77.6749 267.432 77.6749C266.037 77.6749 264.582 77.2657 263.066 76.4472C261.551 75.6287 260.262 74.4009 259.201 72.7639C257.898 75.4922 257.246 78.16 257.246 80.7671C257.246 87.7699 259.792 91.2712 264.885 91.2712C266.219 91.2712 267.856 90.6346 269.796 89.3614C271.767 88.0882 273.495 86.7543 274.98 85.3598C276.496 83.935 278.406 82.0706 280.71 79.7667C283.014 77.4324 284.605 75.8712 285.484 75.083ZM302.4 61.8504L307.857 61.2138C308.736 61.2138 309.176 61.426 309.176 61.8504C309.176 62.2749 308.13 64.6546 306.038 68.9897C301.248 78.8117 298.853 84.7232 298.853 86.724C298.853 86.7543 298.838 86.8756 298.808 87.0878C298.808 87.2697 298.808 87.4212 298.808 87.5425C298.838 87.6334 298.869 87.7699 298.899 87.9517C298.929 88.1336 298.975 88.27 299.035 88.361C299.248 88.6338 299.551 88.7702 299.945 88.7702C300.733 88.7702 303.143 86.9817 307.175 83.4045C311.237 79.797 314.011 76.9928 315.496 74.992V80.085C304.674 90.9075 297.383 96.3187 293.624 96.3187C292.29 96.3187 291.29 95.7276 290.623 94.5453C289.956 93.3327 289.622 92.1504 289.622 90.9984C289.622 89.8464 289.85 88.5277 290.305 87.0423C290.759 85.5265 291.366 83.7986 292.123 81.8584C292.912 79.9182 293.639 78.16 294.306 76.5836C294.973 75.0072 295.701 73.3096 296.489 71.4906C297.307 69.6414 297.777 68.5652 297.899 68.2621C296.171 70.0204 294.155 71.9454 291.851 74.0371C289.577 76.1289 287.44 78.2054 285.439 80.2669V75.1739L294.67 65.5792C290.972 64.6698 288.577 63.2449 287.485 61.3048C287.243 60.9107 287.122 60.5621 287.122 60.2589C287.122 58.1368 287.925 56.2725 289.532 54.6658C291.138 53.0591 293.275 52.2557 295.943 52.2557C297.307 52.2557 297.989 53.0591 297.989 54.6658C297.989 55.6055 297.717 56.6363 297.171 57.7579C296.625 58.8493 295.974 59.592 295.216 59.9861C296.61 61.229 299.005 61.8504 302.4 61.8504ZM325.5 94.6817C324.47 95.1061 323.333 95.485 322.09 95.8185C320.877 96.152 319.65 96.3187 318.407 96.3187C317.194 96.3187 315.906 96.1974 314.541 95.9549C313.208 95.7124 311.889 95.3183 310.585 94.7726C307.614 93.56 306.129 91.4683 306.129 88.4974C306.129 87.3151 306.569 85.9661 307.448 84.4503C308.327 82.9346 309.282 81.6007 310.313 80.4488C311.374 79.2968 312.616 77.9781 314.041 76.4926C315.466 75.0072 316.436 73.9462 316.952 73.3096C316.133 71.2784 315.724 69.0654 315.724 66.6705C315.724 63.1237 316.815 60.1983 318.998 57.8943C321.18 55.5601 324.439 54.3929 328.774 54.3929C330.684 54.3929 331.639 54.9234 331.639 55.9845C331.639 57.864 330.821 59.3343 329.184 60.3953C327.577 61.426 325.849 61.9414 324 61.9414C325.031 65.0638 326.774 67.868 329.229 70.3538C330.139 71.3239 331.018 72.2485 331.867 73.1277C333.837 75.1285 334.822 76.8564 334.822 78.3115C334.822 80.5549 333.761 83.1316 331.639 86.0419L345.145 74.992V79.994C344.781 80.2972 343.871 81.0854 342.416 82.3586C340.991 83.6318 339.946 84.5565 339.279 85.1324C338.642 85.6781 337.581 86.5421 336.096 87.7244C334.64 88.9067 333.458 89.8161 332.549 90.4527C331.67 91.059 330.533 91.8018 329.138 92.6809C327.744 93.56 326.531 94.227 325.5 94.6817ZM318.907 76.8564C318.664 77.1293 317.74 77.9932 316.133 79.4484C312.556 82.6314 310.767 85.087 310.767 86.8149C310.767 88.5126 311.646 89.9525 313.405 91.1348C315.163 92.2868 317.058 92.8628 319.089 92.8628C321.12 92.8628 322.757 92.5293 324 91.8624C325.243 91.1651 325.864 90.286 325.864 89.225C325.864 88.1639 325.728 87.209 325.455 86.3602C325.182 85.5114 324.743 84.6322 324.136 83.7228C323.56 82.783 323.045 82.0251 322.59 81.4492C322.166 80.8429 321.514 80.0243 320.635 78.9936C319.756 77.9326 319.18 77.2202 318.907 76.8564Z" fill="white"/>
</svg>
